Coordinates
version=1
nRows=16
nColumns=22
inDegrees=yes

Units are S.I. units (second, meters, Newtons, ...)
If the header above contains a line with 'inDegrees', this indicates whether rotational values are in degrees (yes) or radians (no).

endheader
time	pelvis_tilt	pelvis_list	pelvis_rotation	pelvis_tx	pelvis_ty	pelvis_tz	hip_flexion_r	hip_adduction_r	hip_rotation_r	knee_angle_r	ankle_angle_r	subtalar_angle_r	hip_flexion_l	hip_adduction_l	hip_rotation_l	knee_angle_l	ankle_angle_l	subtalar_angle_l	lumbar_extension	lumbar_bending	lumbar_rotation
      2.47000000	      6.93559513	      1.13230443	     74.42645000	     -0.06418784	      1.01368333	     -0.12441381	     -0.87667181	      9.37574746	     -3.99962894	    -14.54314815	     11.59503799	     -1.26274644	     21.11297714	     -7.83750658	    -10.33894151	    -32.42853116	      9.55601328	     -0.38198473	    -15.97353128	      6.41825403	      6.05108545
      2.48000000	      6.91432546	      1.22399165	     74.72478562	     -0.06278424	      1.01333291	     -0.12959538	     -1.38571885	      9.37435017	     -4.20215608	    -14.37182875	     11.85610952	     -1.31808401	     21.19960491	     -7.60279050	    -10.31373014	    -30.82487861	      9.07106784	     -0.15737586	    -16.06265869	      6.38742894	      6.06713056
      2.49000000	      6.89561478	      1.29234836	     75.00728752	     -0.06135873	      1.01290359	     -0.13486545	     -1.88872153	      9.38324677	     -4.40053867	    -14.17918473	     12.10229380	     -1.35796192	     21.28837693	     -7.39959842	    -10.32631361	    -29.25497836	      8.54956621	      0.05161436	    -16.11365995	      6.36059028	      6.07174967
      2.50000000	      6.92333879	      1.42713415	     75.25853946	     -0.05991966	      1.01255074	     -0.14020843	     -2.49803669	      9.42601931	     -4.52944801	    -13.95691789	     12.34988688	     -1.38535647	     21.25490422	     -7.23614510	    -10.31833464	    -27.69889792	      8.11666999	      0.34435943	    -16.25360581	      6.35636158	      6.10870433
      2.51000000	      6.93239262	      1.50403269	     75.49627381	     -0.05847308	      1.01204535	     -0.14563639	     -3.03928589	      9.46106375	     -4.68737076	    -13.74838989	     12.59838677	     -1.39678152	     21.27785463	     -7.09416549	    -10.37204841	    -26.21604913	      7.65368928	      0.58988111	    -16.30792989	      6.34492839	      6.12779034
      2.52000000	      6.96953567	      1.61052751	     75.70772032	     -0.05700473	      1.01154340	     -0.15115489	     -3.63173442	      9.51906846	     -4.79789680	    -13.53177961	     12.84839955	     -1.39012865	     21.23645574	     -6.99166242	    -10.44664021	    -24.79532036	      7.26311642	      0.88645205	    -16.39599078	      6.34541930	      6.16210762
      2.53000000	      7.01970242	      1.71218323	     75.89186161	     -0.05554174	      1.01098185	     -0.15675064	     -4.22344345	      9.58758727	     -4.88537759	    -13.32497683	     13.10283978	     -1.36584258	     21.18207753	     -6.92389517	    -10.56316322	    -23.46485676	      6.93420862	      1.21723008	    -16.47591599	      6.35823264	      6.20640983
      2.54000000	      7.07649151	      1.80250889	     76.05456804	     -0.05409832	      1.01034624	     -0.16242614	     -4.79740645	      9.66110524	     -4.95694623	    -13.14338120	     13.36357432	     -1.32838916	     21.12645310	     -6.88254944	    -10.71952970	    -22.24165188	      6.65215806	      1.57627702	    -16.53689380	      6.37849260	      6.24643359
      2.55000000	      7.14457781	      1.88515997	     76.19596120	     -0.05267689	      1.00964486	     -0.16818150	     -5.35435373	      9.74237805	     -5.01057674	    -12.99462761	     13.62807414	     -1.27584684	     21.06588898	     -6.87004355	    -10.90871983	    -21.14148966	      6.43295701	      1.98182940	    -16.58506318	      6.41195117	      6.28773581
      2.56000000	      7.20857461	      1.94457208	     76.32047881	     -0.05128957	      1.00885063	     -0.17401225	     -5.86682578	      9.81885298	     -5.06020581	    -12.89155722	     13.90645293	     -1.21883430	     21.02298062	     -6.86970440	    -11.12128250	    -20.17714817	      6.23558426	      2.39524376	    -16.59515455	      6.44351679	      6.32427395
      2.57000000	      7.27868739	      1.99223363	     76.42717708	     -0.04994454	      1.00799169	     -0.17991422	     -6.34798689	      9.89721840	     -5.09575195	    -12.83563552	     14.18806035	     -1.14906234	     20.98292943	     -6.88720032	    -11.34195149	    -19.36111907	      6.07612567	      2.84446120	    -16.58788192	      6.48529339	      6.35598399
      2.58000000	      7.33987917	      2.01287514	     76.51835928	     -0.04865614	      1.00704641	     -0.18586480	     -6.76680663	      9.96445583	     -5.12713570	    -12.84451901	     14.48625855	     -1.08071155	     20.96360468	     -6.90657678	    -11.55704528	    -18.69338511	      5.91536861	      3.25643346	    -16.54503684	      6.52442608	      6.37407292
      2.59000000	      7.39740287	      2.02698088	     76.59915163	     -0.04742999	      1.00606047	     -0.19192006	     -7.16004160	     10.02090052	     -5.15687737	    -12.89784745	     14.77737564	     -0.99552719	     20.94555141	     -6.92665513	    -11.75285581	    -18.19594218	      5.75508961	      3.67027592	    -16.47976356	      6.56590811	      6.39148953
      2.60000000	      7.43965728	      2.01390702	     76.66788868	     -0.04626637	      1.00500762	     -0.19800779	     -7.47759080	     10.06049213	     -5.17199564	    -13.03749428	     15.09119534	     -0.93279511	     20.94780473	     -6.93513232	    -11.90105373	    -17.84900854	      5.55452948	      3.92597419	    -16.38109148	      6.59830529	      6.37761502
      2.61000000	      7.49772336	      1.98358076	     76.74102404	     -0.04518289	      1.00392278	     -0.20419548	     -7.77996451	     10.11766100	     -5.18245714	    -13.18300888	     15.36524993	     -0.90417666	     20.97851354	     -6.96246137	    -11.99592087	    -17.70250096	      5.32632954	      4.02462673	    -16.25712436	      6.66198982	      6.36699787
      2.62000000	      7.47624022	      1.98501664	     76.79264868	     -0.04415344	      1.00291195	     -0.21050346	     -8.05522837	     10.06865011	     -5.21785571	    -13.42216656	     15.66844846	     -0.77516735	     20.93831691	     -6.89171556	    -12.04196589	    -17.63587451	      5.04327852	      4.16722878	    -16.13584892	      6.62643036	      6.32516465
